# xmcd
#
# Track frame offsets:
#	150
#	15838
#	34552
#	51589
#	66680
#	79155
#	103283
#	124760
#	147432
#	163695
#	180637
#
# Disc length: 2754 seconds
#
# Revision: 1
# Processed by: cddbd v1.5.1PL0 Copyright (c) Steve Scherf et al.
# Submitted via: audiograbber 1.82.02
#
DISCID=9b0ac00b
DTITLE=The Reverend John Bluesband - Two-Fisted Pastor
DYEAR=2002
DGENRE=Blues
TTITLE0=Two-Fisted Pastor
TTITLE1=Lost Ship
TTITLE2=Kongelig framtid
TTITLE3=I'm Ready
TTITLE4=Livet kan ofte bli tøft
TTITLE5=Livin' the Blues
TTITLE6=Hey, Mr. B.B. King
TTITLE7=Herren er min hyrde
TTITLE8=Everybody Wants to Go to Heaven
TTITLE9=Når du beveger deg i dag
TTITLE10=Just a Closer Walk With Thee
EXTD=
EXTT0=
EXTT1=
EXTT2=
EXTT3=
EXTT4=
EXTT5=
EXTT6=
EXTT7=
EXTT8=
EXTT9=
EXTT10=
PLAYORDER=
